<svg class="topography-shape js-shape" width="1200" height="580" xmlns="http://www.w3.org/2000/svg"><path d="M734.567 34.372c-28.692 61.724-23.266 100.422 16.275 116.094 59.313 23.508 200.347 32.911 259.299 83.906 58.95 50.994 238.697 11.572 269.438-75.95C1310.32 70.9 1365.669-64 1073.808-64c-194.576 0-307.654 32.79-339.24 98.372h-.001z" fill="#FFFA72"/><path d="M734.567 34.372c-28.692 61.724-23.266 100.422 16.275 116.094 59.313 23.508 200.347 32.911 259.299 83.906 58.95 50.994 238.697 11.572 269.438-75.95C1310.32 70.9 1365.669-64 1073.808-64c-194.576 0-307.654 32.79-339.24 98.372h-.001z" fill="#FFFA72" transform="matrix(2.8 0 1.61658 2.8 -1800 60)" style="position:relative;z-index:0;fill:#d6f2ff"/><path d="M734.567 34.372c-28.692 61.724-23.266 100.422 16.275 116.094 59.313 23.508 200.347 32.911 259.299 83.906 58.95 50.994 238.697 11.572 269.438-75.95C1310.32 70.9 1365.669-64 1073.808-64c-194.576 0-307.654 32.79-339.24 98.372h-.001z" fill="#FFFA72" transform="matrix(2.65 0 1.3795 2.65 -1650 55)" style="position:relative;z-index:1;fill:#c7e1f3"/><path d="M734.567 34.372c-28.692 61.724-23.266 100.422 16.275 116.094 59.313 23.508 200.347 32.911 259.299 83.906 58.95 50.994 238.697 11.572 269.438-75.95C1310.32 70.9 1365.669-64 1073.808-64c-194.576 0-307.654 32.79-339.24 98.372h-.001z" fill="#FFFA72" transform="matrix(2.5 0 1.16577 2.5 -1500 50)" style="position:relative;z-index:2;fill:#b8cfe6"/><path d="M734.567 34.372c-28.692 61.724-23.266 100.422 16.275 116.094 59.313 23.508 200.347 32.911 259.299 83.906 58.95 50.994 238.697 11.572 269.438-75.95C1310.32 70.9 1365.669-64 1073.808-64c-194.576 0-307.654 32.79-339.24 98.372h-.001z" fill="#FFFA72" transform="matrix(2.35 0 .9734 2.35 -1350 45)" style="position:relative;z-index:3;fill:#a9beda"/><path d="M734.567 34.372c-28.692 61.724-23.266 100.422 16.275 116.094 59.313 23.508 200.347 32.911 259.299 83.906 58.95 50.994 238.697 11.572 269.438-75.95C1310.32 70.9 1365.669-64 1073.808-64c-194.576 0-307.654 32.79-339.24 98.372h-.001z" fill="#FFFA72" transform="matrix(2.2 0 .80073 2.2 -1200 40)" style="position:relative;z-index:4;fill:#9aadce"/><path d="M734.567 34.372c-28.692 61.724-23.266 100.422 16.275 116.094 59.313 23.508 200.347 32.911 259.299 83.906 58.95 50.994 238.697 11.572 269.438-75.95C1310.32 70.9 1365.669-64 1073.808-64c-194.576 0-307.654 32.79-339.24 98.372h-.001z" fill="#FFFA72" transform="matrix(2.05 0 .64636 2.05 -1050 35)" style="position:relative;z-index:5;fill:#8b9bc1"/><path d="M734.567 34.372c-28.692 61.724-23.266 100.422 16.275 116.094 59.313 23.508 200.347 32.911 259.299 83.906 58.95 50.994 238.697 11.572 269.438-75.95C1310.32 70.9 1365.669-64 1073.808-64c-194.576 0-307.654 32.79-339.24 98.372h-.001z" fill="#FFFA72" transform="matrix(1.9 0 .5091 1.9 -900 30)" style="position:relative;z-index:6;fill:#7d8ab5"/><path d="M734.567 34.372c-28.692 61.724-23.266 100.422 16.275 116.094 59.313 23.508 200.347 32.911 259.299 83.906 58.95 50.994 238.697 11.572 269.438-75.95C1310.32 70.9 1365.669-64 1073.808-64c-194.576 0-307.654 32.79-339.24 98.372h-.001z" fill="#FFFA72" transform="matrix(1.75 0 .38797 1.75 -750 25)" style="position:relative;z-index:7;fill:#6e79a9"/><path d="M734.567 34.372c-28.692 61.724-23.266 100.422 16.275 116.094 59.313 23.508 200.347 32.911 259.299 83.906 58.95 50.994 238.697 11.572 269.438-75.95C1310.32 70.9 1365.669-64 1073.808-64c-194.576 0-307.654 32.79-339.24 98.372h-.001z" fill="#FFFA72" transform="matrix(1.6 0 .28212 1.6 -600 20)" style="position:relative;z-index:8;fill:#5f679c"/><path d="M734.567 34.372c-28.692 61.724-23.266 100.422 16.275 116.094 59.313 23.508 200.347 32.911 259.299 83.906 58.95 50.994 238.697 11.572 269.438-75.95C1310.32 70.9 1365.669-64 1073.808-64c-194.576 0-307.654 32.79-339.24 98.372h-.001z" fill="#FFFA72" transform="matrix(1.45 0 .1909 1.45 -450 15)" style="position:relative;z-index:9;fill:#505690"/><path d="M734.567 34.372c-28.692 61.724-23.266 100.422 16.275 116.094 59.313 23.508 200.347 32.911 259.299 83.906 58.95 50.994 238.697 11.572 269.438-75.95C1310.32 70.9 1365.669-64 1073.808-64c-194.576 0-307.654 32.79-339.24 98.372h-.001z" fill="#FFFA72" transform="matrix(1.3 0 .11374 1.3 -300 10)" style="position:relative;z-index:10;fill:#414584"/><path d="M734.567 34.372c-28.692 61.724-23.266 100.422 16.275 116.094 59.313 23.508 200.347 32.911 259.299 83.906 58.95 50.994 238.697 11.572 269.438-75.95C1310.32 70.9 1365.669-64 1073.808-64c-194.576 0-307.654 32.79-339.24 98.372h-.001z" fill="#FFFA72" transform="matrix(1.15 0 .05021 1.15 -150 5)" style="position:relative;z-index:11;fill:#323377"/></svg>